<mxfile host="app.diagrams.net" modified="2024-07-15T07:07:40.024Z" agent="Mozilla/5.0 (Windows NT 10.0; Win64; x64) AppleWebKit/537.36 (KHTML, like Gecko) Chrome/126.0.0.0 Safari/537.36" etag="HpkTS10rdaC6SoVr3Kmc" version="24.6.5" type="github" pages="2">
  <diagram name="第 1 页" id="df2AsnIisK_fwopCTuH5">
    <mxGraphModel dx="1434" dy="746" grid="1" gridSize="10" guides="1" tooltips="1" connect="1" arrows="1" fold="1" page="1" pageScale="1" pageWidth="827" pageHeight="1169" math="0" shadow="0">
      <root>
        <mxCell id="0" />
        <mxCell id="1" parent="0" />
        <mxCell id="ECmPQMkhNHB8up8QFukp-1" value="&lt;h1 style=&quot;margin-top: 0px;&quot;&gt;ajsdlfkjalks;df&amp;nbsp;&lt;/h1&gt;" style="text;html=1;whiteSpace=wrap;overflow=hidden;rounded=0;" parent="1" vertex="1">
          <mxGeometry x="190" y="290" width="180" height="120" as="geometry" />
        </mxCell>
        <mxCell id="ECmPQMkhNHB8up8QFukp-2" value="" style="shape=process;whiteSpace=wrap;html=1;backgroundOutline=1;" parent="1" vertex="1">
          <mxGeometry x="570" y="410" width="120" height="60" as="geometry" />
        </mxCell>
        <mxCell id="ECmPQMkhNHB8up8QFukp-4" value="" style="edgeStyle=orthogonalEdgeStyle;rounded=0;orthogonalLoop=1;jettySize=auto;html=1;" parent="1" source="ECmPQMkhNHB8up8QFukp-3" target="ECmPQMkhNHB8up8QFukp-2" edge="1">
          <mxGeometry relative="1" as="geometry">
            <Array as="points">
              <mxPoint x="330" y="420" />
            </Array>
          </mxGeometry>
        </mxCell>
        <mxCell id="ECmPQMkhNHB8up8QFukp-3" value="" style="shape=process;whiteSpace=wrap;html=1;backgroundOutline=1;" parent="1" vertex="1">
          <mxGeometry x="260" y="540" width="120" height="60" as="geometry" />
        </mxCell>
        <mxCell id="3I6vYUIywSwMKwfbUM-j-1" value="" style="rounded=0;whiteSpace=wrap;html=1;" parent="1" vertex="1">
          <mxGeometry x="560" y="680" width="160" height="80" as="geometry" />
        </mxCell>
      </root>
    </mxGraphModel>
  </diagram>
  <diagram id="m2gS0NoLPOvXJpLPcA_I" name="第 2 页">
    <mxGraphModel dx="1834" dy="1596" grid="0" gridSize="10" guides="1" tooltips="1" connect="1" arrows="1" fold="1" page="0" pageScale="1" pageWidth="827" pageHeight="1169" math="0" shadow="0">
      <root>
        <mxCell id="0" />
        <mxCell id="1" parent="0" />
        <mxCell id="Otp8jAd6JsaP9hkJIVjb-1" value="" style="ellipse;shape=cloud;whiteSpace=wrap;html=1;" vertex="1" parent="1">
          <mxGeometry x="-263" y="-483" width="120" height="80" as="geometry" />
        </mxCell>
      </root>
    </mxGraphModel>
  </diagram>
</mxfile>
